<svg width="24" height="24" viewBox="0 0 24 24" fill="none" xmlns="http://www.w3.org/2000/svg">
<path d="M23.0303 7.28039L20.2457 10.065C20.1709 12.8172 19.1204 15.5013 17.3375 17.472C15.2491 19.7801 12.3661 21 8.99999 21C5.727 21 4.03987 19.3506 3.96965 19.2804C3.87371 19.1845 3.80559 19.0643 3.77254 18.9327C3.7395 18.8011 3.74277 18.663 3.78202 18.5331C3.82126 18.4032 3.895 18.2864 3.99539 18.1951C4.09577 18.1039 4.21904 18.0415 4.35206 18.0148C5.1525 17.8526 7.13934 17.2212 7.98487 16.083C7.07835 15.5603 6.27337 14.8786 5.6085 14.0705C3.25612 11.214 3.306 7.62426 3.76209 5.11589C3.78783 4.97429 3.85376 4.84308 3.95203 4.73792C4.0503 4.63277 4.17675 4.55811 4.31628 4.52285C4.45582 4.4876 4.60256 4.49324 4.73898 4.5391C4.8754 4.58495 4.99575 4.6691 5.08565 4.78148C5.11143 4.81354 7.5764 7.83351 11.25 8.82023V8.25023C11.2579 7.04932 11.7424 5.90071 12.5969 5.05689C13.4515 4.21308 14.6061 3.74312 15.807 3.75033C16.5871 3.76111 17.3511 3.97407 18.0243 4.36838C18.6975 4.7627 19.2569 5.32489 19.6479 6.00004H22.5C22.6483 6.00004 22.7933 6.04402 22.9167 6.12643C23.04 6.20884 23.1362 6.32598 23.1929 6.46303C23.2497 6.60008 23.2645 6.75088 23.2356 6.89637C23.2067 7.04186 23.1352 7.1755 23.0303 7.28039Z" fill="#EBEBF5" fill-opacity="0.6"/>
</svg>
