<svg width="24" height="24" viewBox="0 0 24 24" fill="none" xmlns="http://www.w3.org/2000/svg">
<path d="M21.6802 2.97513C21.4736 2.79669 21.222 2.67819 20.9528 2.63246C20.6836 2.58674 20.407 2.61553 20.153 2.71573L2.85084 9.51307C2.5493 9.63158 2.29425 9.84453 2.12382 10.1201C1.95339 10.3956 1.87675 10.7189 1.90537 11.0416C1.93399 11.3644 2.06633 11.6691 2.28259 11.9104C2.49885 12.1516 2.78741 12.3164 3.10509 12.3799L7.49999 13.2591V18.7485C7.49973 19.0453 7.58755 19.3354 7.75232 19.5823C7.91709 19.8291 8.15141 20.0215 8.42559 20.1351C8.69978 20.2487 9.00151 20.2783 9.29256 20.2203C9.58361 20.1623 9.85091 20.0192 10.0606 19.8092L12.4928 17.377L16.1843 20.6254C16.4561 20.8668 16.8068 21.0003 17.1703 21.0008C17.3283 21.0006 17.4853 20.9758 17.6356 20.927C17.8835 20.8484 18.1065 20.7061 18.2822 20.5144C18.458 20.3227 18.5804 20.0883 18.6373 19.8345L22.1636 4.4471C22.225 4.18101 22.2125 3.90319 22.1272 3.64374C22.042 3.38428 21.8875 3.1531 21.6802 2.97523V2.97513ZM17.1752 19.4993L9.45093 12.7019L20.5739 4.66873L17.1752 19.4993Z" fill="#EBEBF5" fill-opacity="0.6"/>
</svg>
